<svg version="1.1" id="Layer_1" xmlns="http://www.w3.org/2000/svg" xmlns:xlink="http://www.w3.org/1999/xlink" x="0px" y="0px"
	 width="100%" viewBox="0 0 228 201" enable-background="new 0 0 228 201" xml:space="preserve">
<path fill="#F5F5F4" opacity="1.000000" stroke="none" 
	d="
M167.000000,202.000000 
	C111.333336,202.000000 56.166672,202.000000 1.000007,202.000000 
	C1.000005,135.000000 1.000005,68.000015 1.000003,1.000016 
	C76.999992,1.000011 152.999985,1.000011 228.999969,1.000005 
	C228.999985,67.999985 228.999985,134.999969 229.000000,201.999969 
	C208.500000,202.000000 188.000000,202.000000 167.000000,202.000000 
M61.764412,61.955017 
	C64.826752,58.275429 60.924221,56.439812 59.363083,54.369621 
	C58.428555,53.130367 55.974831,53.036739 54.203949,52.428181 
	C54.461926,52.824001 54.719902,53.219826 54.246304,53.780022 
	C53.397457,54.158466 52.548615,54.536911 52.011269,54.776478 
	C52.911030,57.043530 53.707550,59.050461 53.904724,61.480488 
	C50.936836,60.312927 47.968945,59.145367 44.310429,58.057819 
	C36.763927,64.267807 41.397511,72.269928 40.764805,79.789101 
	C42.777584,79.487030 44.383396,79.246033 46.323078,79.573364 
	C49.210999,82.791420 52.007568,81.038521 54.175297,78.921097 
	C55.962032,77.175819 56.978634,74.642128 58.514954,72.170815 
	C57.639572,69.733864 56.080418,65.393364 55.185776,61.250809 
	C56.948853,63.523506 58.907547,64.014008 61.764412,61.955017 
M175.410645,173.079422 
	C177.921692,173.369781 180.432724,173.660141 183.510620,174.368744 
	C186.202606,173.286621 188.894592,172.204498 191.586578,171.122391 
	C189.522491,169.613785 191.433197,165.091705 187.419083,164.515137 
	C188.141129,163.401718 188.938004,162.329071 189.571228,161.167252 
	C191.491592,157.643799 190.933487,154.281601 188.174347,151.580811 
	C185.577164,149.038528 182.285385,148.408112 179.003662,150.303619 
	C175.657669,152.236267 174.138229,155.241333 174.950714,159.143188 
	C175.253571,160.597610 175.830597,161.994965 175.417191,163.322708 
	C173.736557,165.163498 171.290619,166.766159 170.620041,168.921234 
	C170.093735,170.612701 171.226379,173.535767 175.410645,173.079422 
M153.307495,96.096924 
	C153.664734,92.177399 150.956680,92.522522 148.412674,92.524376 
	C127.519577,92.539619 106.625595,92.628899 85.734177,92.441261 
	C82.127747,92.408875 80.481239,93.398277 79.799873,96.986450 
	C78.153481,96.999557 76.491531,96.872635 74.863747,97.053368 
	C70.807304,97.503769 72.573708,100.738434 72.384888,102.861534 
	C72.291466,103.912025 73.216393,105.053085 73.680573,106.153160 
	C74.404350,104.580940 75.122581,103.006126 75.856865,101.438828 
	C75.993629,101.146904 76.194771,100.885132 76.572166,100.278236 
	C77.829048,100.278236 79.291580,100.278236 80.842484,101.302498 
	C80.952126,112.813545 81.061768,124.324585 80.957886,136.769760 
	C80.938873,138.886826 81.026489,141.011307 80.879578,143.119461 
	C80.528603,148.155945 81.437714,152.562668 86.256821,156.012497 
	C86.253616,157.819336 86.115578,159.638123 86.274635,161.430573 
	C86.631439,165.451401 88.970673,167.835541 92.942497,167.989288 
	C96.930290,168.143661 99.447083,165.899521 100.059830,161.932480 
	C100.357689,160.004059 100.181770,158.002457 101.250275,155.919937 
	C112.142937,155.958160 123.035606,155.996384 133.878387,156.844727 
	C133.889801,158.322937 133.760422,159.818451 133.939392,161.276093 
	C134.448685,165.423904 136.772049,168.052383 141.033722,167.974960 
	C145.261688,167.898132 147.619675,165.322189 147.871857,161.074966 
	C147.988235,159.114807 147.815079,157.137466 148.404282,154.804153 
	C149.998093,152.256180 152.414261,149.877335 152.981689,147.118286 
	C153.724258,143.507706 153.005997,139.596664 153.075653,134.912125 
	C153.161606,123.392464 153.247559,111.872803 154.178284,100.336220 
	C156.773956,100.008995 158.798523,100.289116 158.583694,103.749031 
	C158.536316,104.511940 159.368790,105.329475 159.796127,106.121849 
	C160.431946,105.743797 161.372742,105.520073 161.654648,104.962944 
	C163.663879,100.992111 161.322906,97.081261 156.986984,97.011070 
	C155.835236,96.992424 154.683258,96.988976 153.307495,96.096924 
M105.499969,89.590363 
	C121.237160,89.590363 136.974350,89.590363 152.626297,89.590363 
	C153.240067,82.650635 150.206833,78.963799 144.034256,78.794174 
	C136.557678,78.588692 129.071579,78.721321 121.589607,78.722107 
	C111.114807,78.723213 100.637619,78.605927 90.166077,78.795090 
	C83.723282,78.911484 80.478424,83.059319 81.718063,89.589951 
	C89.243240,89.589951 96.871643,89.589951 105.499969,89.590363 
M101.751297,59.744434 
	C98.796898,60.403366 97.215408,62.260082 98.524078,65.081734 
	C99.124893,66.377151 101.319801,67.791817 102.639915,67.657669 
	C104.006248,67.518806 106.444473,65.071716 106.219330,64.502914 
	C105.501129,62.688507 103.763489,61.277618 101.751297,59.744434 
M112.979256,63.016132 
	C112.871765,66.638184 114.798012,68.323380 118.163200,67.525879 
	C119.376831,67.238251 120.888855,65.365517 121.006294,64.099411 
	C121.122894,62.842300 119.572067,60.270870 118.900650,60.319546 
	C116.950478,60.460926 115.074593,61.626930 112.979256,63.016132 
M127.857132,62.099319 
	C126.696518,65.824448 128.731140,67.796440 131.956451,67.684074 
	C133.348267,67.635582 134.933228,65.232452 135.847000,63.576923 
	C136.173874,62.984688 134.828079,60.540264 134.166412,60.506737 
	C132.233078,60.408779 130.259781,61.099972 127.857132,62.099319 
z"/>
<path fill="#35B3D5" opacity="1.000000" stroke="none" 
	d="
M153.333527,100.353142 
	C153.247559,111.872803 153.161606,123.392464 152.535324,135.376709 
	C128.387131,135.839417 104.779274,135.837524 81.171410,135.835632 
	C81.061768,124.324585 80.952126,112.813545 80.865471,100.556473 
	C81.015472,99.508636 81.112854,99.197540 81.637856,98.871872 
	C105.684662,98.862930 129.274216,98.859268 152.932617,99.108978 
	C153.112137,99.692612 153.222839,100.022881 153.333527,100.353142 
M143.321518,122.737427 
	C143.746613,121.753265 144.215149,120.782097 144.520142,119.762016 
	C144.546555,119.673691 143.183151,118.893257 142.987701,119.057175 
	C140.515015,121.130928 138.093719,123.273933 135.797806,125.539612 
	C135.534088,125.799858 136.106552,126.907448 136.291321,127.622162 
	C138.234695,126.395416 140.182556,125.175644 142.116272,123.933876 
	C142.386139,123.760567 142.586472,123.479027 143.321518,122.737427 
M98.309998,107.198051 
	C95.922127,107.019844 89.432388,111.818901 89.441856,113.861061 
	C89.444298,114.385933 89.989258,115.308105 90.357399,115.346107 
	C91.067688,115.419418 92.073578,115.220764 92.528366,114.734268 
	C94.627663,112.488625 96.579491,110.105141 98.309998,107.198051 
z"/>
<path fill="#EE3B3F" opacity="1.000000" stroke="none" 
	d="
M81.064651,136.302704 
	C104.779274,135.837524 128.387131,135.839417 152.455566,135.828094 
	C153.005997,139.596664 153.724258,143.507706 152.981689,147.118286 
	C152.414261,149.877335 149.998093,152.256180 147.696976,155.023224 
	C142.635864,155.506393 138.282074,155.770493 133.928268,156.034592 
	C123.035606,155.996384 112.142937,155.958160 100.335548,155.935532 
	C95.070000,155.689926 90.719170,155.428726 86.368347,155.167526 
	C81.437714,152.562668 80.528603,148.155945 80.879578,143.119461 
	C81.026489,141.011307 80.938873,138.886826 81.064651,136.302704 
M95.315521,149.940735 
	C99.413544,150.239761 101.165085,148.267014 100.851036,144.256378 
	C100.482300,139.547531 97.002029,140.186462 93.837189,140.025314 
	C90.524757,139.856689 89.056107,140.985260 88.940292,144.552765 
	C88.804665,148.730453 90.334206,150.472748 95.315521,149.940735 
M138.623260,149.940201 
	C140.507156,149.590866 143.696518,149.706100 144.018631,148.800964 
	C144.831635,146.516418 145.389114,142.625198 144.137680,141.496048 
	C142.483109,140.003159 138.943726,140.068314 136.346176,140.424484 
	C135.368774,140.558502 134.370697,143.310135 134.072281,144.990997 
	C133.602295,147.638275 134.127701,150.076401 138.623260,149.940201 
M107.403923,146.237915 
	C106.786377,146.893234 106.168839,147.548538 105.551300,148.203857 
	C106.296616,148.753983 107.034042,149.768341 107.788490,149.781158 
	C114.105530,149.888519 120.426979,149.865509 126.743103,149.714493 
	C127.436005,149.697922 128.103699,148.627701 128.783096,148.046158 
	C128.719864,147.501022 128.656631,146.955887 128.593399,146.410751 
	C121.810181,146.327057 115.026970,146.243362 107.403923,146.237915 
M107.953796,144.971207 
	C114.681641,144.851471 121.461868,145.420258 128.547882,144.568405 
	C127.922813,143.144150 127.800583,142.592972 127.661903,142.588806 
	C120.917816,142.386063 114.172386,142.216782 107.426407,142.184036 
	C107.311264,142.183487 107.187798,143.898056 107.953796,144.971207 
z"/>
<path fill="#F0383D" opacity="1.000000" stroke="none" 
	d="
M105.000008,89.590157 
	C96.871643,89.589951 89.243240,89.589951 81.718063,89.589951 
	C80.478424,83.059319 83.723282,78.911484 90.166077,78.795090 
	C100.637619,78.605927 111.114807,78.723213 121.589607,78.722107 
	C129.071579,78.721321 136.557678,78.588692 144.034256,78.794174 
	C150.206833,78.963799 153.240067,82.650635 152.626297,89.590363 
	C136.974350,89.590363 121.237160,89.590363 105.000008,89.590157 
z"/>
<path fill="#E83D43" opacity="1.000000" stroke="none" 
	d="
M152.863770,98.855614 
	C129.274216,98.859268 105.684662,98.862930 81.577377,98.550316 
	C80.917168,97.823120 80.774696,97.412201 80.632225,97.001274 
	C80.481239,93.398277 82.127747,92.408875 85.734177,92.441261 
	C106.625595,92.628899 127.519577,92.539619 148.412674,92.524376 
	C150.956680,92.522522 153.664734,92.177399 153.260025,96.832169 
	C153.096283,97.996811 152.980026,98.426208 152.863770,98.855614 
z"/>
<path fill="#FA5353" opacity="1.000000" stroke="none" 
	d="
M176.282608,163.418335 
	C175.830597,161.994965 175.253571,160.597610 174.950714,159.143188 
	C174.138229,155.241333 175.657669,152.236267 179.003662,150.303619 
	C182.285385,148.408112 185.577164,149.038528 188.174347,151.580811 
	C190.933487,154.281601 191.491592,157.643799 189.571228,161.167252 
	C188.938004,162.329071 188.141129,163.401718 187.088196,165.090454 
	C184.445679,166.834167 182.134048,168.002548 179.841125,169.148087 
	C179.859848,169.125259 179.918198,169.118484 179.789764,168.836487 
	C179.301773,168.364517 178.942215,168.174576 178.558319,167.958405 
	C178.533981,167.932159 178.486267,167.878845 178.425720,167.572433 
	C177.670975,165.983459 176.976791,164.700897 176.282608,163.418335 
M181.090454,154.871170 
	C181.272400,156.498596 181.454361,158.126022 181.636322,159.753448 
	C182.882172,159.240448 184.974091,158.982162 185.219238,158.167892 
	C186.037048,155.451385 184.527405,154.176529 181.090454,154.871170 
z"/>
<path fill="#FFA30D" opacity="1.000000" stroke="none" 
	d="
M54.521263,61.052860 
	C56.080418,65.393364 57.639572,69.733864 58.514954,72.170815 
	C56.978634,74.642128 55.962032,77.175819 54.175297,78.921097 
	C52.007568,81.038521 49.210999,82.791420 46.409187,79.022720 
	C49.138016,77.946320 50.601765,76.996376 49.501682,73.750481 
	C47.748840,68.578545 46.476562,63.243736 45.001057,57.977806 
	C47.968945,59.145367 50.936836,60.312927 54.225723,61.239609 
	C54.546719,60.998726 54.521263,61.052860 54.521263,61.052860 
z"/>
<path fill="#4C525C" opacity="1.000000" stroke="none" 
	d="
M86.312584,155.590012 
	C90.719170,155.428726 95.070000,155.689926 99.820572,155.992554 
	C100.181770,158.002457 100.357689,160.004059 100.059830,161.932480 
	C99.447083,165.899521 96.930290,168.143661 92.942497,167.989288 
	C88.970673,167.835541 86.631439,165.451401 86.274635,161.430573 
	C86.115578,159.638123 86.253616,157.819336 86.312584,155.590012 
z"/>
<path fill="#4C525C" opacity="1.000000" stroke="none" 
	d="
M133.903320,156.439651 
	C138.282074,155.770493 142.635864,155.506393 147.381439,155.205109 
	C147.815079,157.137466 147.988235,159.114807 147.871857,161.074966 
	C147.619675,165.322189 145.261688,167.898132 141.033722,167.974960 
	C136.772049,168.052383 134.448685,165.423904 133.939392,161.276093 
	C133.760422,159.818451 133.889801,158.322937 133.903320,156.439651 
z"/>
<path fill="#FFD307" opacity="1.000000" stroke="none" 
	d="
M44.655743,58.017815 
	C46.476562,63.243736 47.748840,68.578545 49.501682,73.750481 
	C50.601765,76.996376 49.138016,77.946320 46.242249,78.738556 
	C44.383396,79.246033 42.777584,79.487030 40.764805,79.789101 
	C41.397511,72.269928 36.763927,64.267807 44.655743,58.017815 
z"/>
<path fill="#EFDB64" opacity="1.000000" stroke="none" 
	d="
M179.822418,169.170929 
	C182.134048,168.002548 184.445679,166.834167 186.952454,165.466553 
	C191.433197,165.091705 189.522491,169.613785 191.586578,171.122391 
	C188.894592,172.204498 186.202606,173.286621 183.102570,173.864990 
	C181.737167,171.964462 180.779800,170.567688 179.822418,169.170929 
z"/>
<path fill="#4C5777" opacity="1.000000" stroke="none" 
	d="
M102.085442,59.727654 
	C103.763489,61.277618 105.501129,62.688507 106.219330,64.502914 
	C106.444473,65.071716 104.006248,67.518806 102.639915,67.657669 
	C101.319801,67.791817 99.124893,66.377151 98.524078,65.081734 
	C97.215408,62.260082 98.796898,60.403366 102.085442,59.727654 
z"/>
<path fill="#FA5353" opacity="1.000000" stroke="none" 
	d="
M113.074409,62.703552 
	C115.074593,61.626930 116.950478,60.460926 118.900650,60.319546 
	C119.572067,60.270870 121.122894,62.842300 121.006294,64.099411 
	C120.888855,65.365517 119.376831,67.238251 118.163200,67.525879 
	C114.798012,68.323380 112.871765,66.638184 113.074409,62.703552 
z"/>
<path fill="#EFDB64" opacity="1.000000" stroke="none" 
	d="
M128.079636,61.790600 
	C130.259781,61.099972 132.233078,60.408779 134.166412,60.506737 
	C134.828079,60.540264 136.173874,62.984688 135.847000,63.576923 
	C134.933228,65.232452 133.348267,67.635582 131.956451,67.684074 
	C128.731140,67.796440 126.696518,65.824448 128.079636,61.790600 
z"/>
<path fill="#585D66" opacity="1.000000" stroke="none" 
	d="
M152.932617,99.108978 
	C152.980026,98.426208 153.096283,97.996811 153.371979,97.272980 
	C154.683258,96.988976 155.835236,96.992424 156.986984,97.011070 
	C161.322906,97.081261 163.663879,100.992111 161.654648,104.962944 
	C161.372742,105.520073 160.431946,105.743797 159.796127,106.121849 
	C159.368790,105.329475 158.536316,104.511940 158.583694,103.749031 
	C158.798523,100.289116 156.773956,100.008995 153.755905,100.344681 
	C153.222839,100.022881 153.112137,99.692612 152.932617,99.108978 
z"/>
<path fill="#585D66" opacity="1.000000" stroke="none" 
	d="
M80.216049,96.993866 
	C80.774696,97.412201 80.917168,97.823120 81.120117,98.555603 
	C81.112854,99.197540 81.015472,99.508636 80.821289,100.044342 
	C79.291580,100.278236 77.829048,100.278236 76.572166,100.278236 
	C76.194771,100.885132 75.993629,101.146904 75.856865,101.438828 
	C75.122581,103.006126 74.404350,104.580940 73.680573,106.153160 
	C73.216393,105.053085 72.291466,103.912025 72.384888,102.861534 
	C72.573708,100.738434 70.807304,97.503769 74.863747,97.053368 
	C76.491531,96.872635 78.153481,96.999557 80.216049,96.993866 
z"/>
<path fill="#EFDB64" opacity="1.000000" stroke="none" 
	d="
M175.849899,163.370514 
	C176.976791,164.700897 177.670975,165.983459 178.030945,167.635254 
	C176.646347,169.642593 175.595963,171.280716 174.545593,172.918854 
	C171.226379,173.535767 170.093735,170.612701 170.620041,168.921234 
	C171.290619,166.766159 173.736557,165.163498 175.849899,163.370514 
z"/>
<path fill="#D0EDF1" opacity="1.000000" stroke="none" 
	d="
M54.525398,61.028061 
	C53.707550,59.050461 52.911030,57.043530 52.011269,54.776478 
	C52.548615,54.536911 53.397457,54.158466 54.893456,53.792179 
	C57.410904,56.504765 59.281204,59.205193 61.151505,61.905624 
	C58.907547,64.014008 56.948853,63.523506 54.853519,61.151833 
	C54.521263,61.052860 54.546719,60.998726 54.525398,61.028061 
z"/>
<path fill="#35B3D5" opacity="1.000000" stroke="none" 
	d="
M61.457958,61.930321 
	C59.281204,59.205193 57.410904,56.504765 55.259243,53.709991 
	C54.719902,53.219826 54.461926,52.824001 54.203949,52.428181 
	C55.974831,53.036739 58.428555,53.130367 59.363083,54.369621 
	C60.924221,56.439812 64.826752,58.275429 61.457958,61.930321 
z"/>
<path fill="#60E169" opacity="1.000000" stroke="none" 
	d="
M174.978119,172.999146 
	C175.595963,171.280716 176.646347,169.642593 178.091492,167.941650 
	C178.486267,167.878845 178.533981,167.932159 178.720795,168.220673 
	C179.244476,168.712280 179.581345,168.915390 179.918198,169.118484 
	C179.918198,169.118484 179.859848,169.125259 179.841125,169.148102 
	C180.779800,170.567688 181.737167,171.964462 182.819153,173.655869 
	C180.432724,173.660141 177.921692,173.369781 174.978119,172.999146 
z"/>
<path fill="#D0EDF1" opacity="1.000000" stroke="none" 
	d="
M143.070251,122.992508 
	C142.586472,123.479027 142.386139,123.760567 142.116272,123.933876 
	C140.182556,125.175644 138.234695,126.395416 136.291321,127.622162 
	C136.106552,126.907448 135.534088,125.799858 135.797806,125.539612 
	C138.093719,123.273933 140.515015,121.130928 142.987701,119.057175 
	C143.183151,118.893257 144.546555,119.673691 144.520142,119.762016 
	C144.215149,120.782097 143.746613,121.753265 143.070251,122.992508 
z"/>
<path fill="#D0EDF1" opacity="1.000000" stroke="none" 
	d="
M98.447090,107.484558 
	C96.579491,110.105141 94.627663,112.488625 92.528366,114.734268 
	C92.073578,115.220764 91.067688,115.419418 90.357399,115.346107 
	C89.989258,115.308105 89.444298,114.385933 89.441856,113.861061 
	C89.432388,111.818901 95.922127,107.019844 98.447090,107.484558 
z"/>
<path fill="#FD8921" opacity="1.000000" stroke="none" 
	d="
M94.884262,149.940979 
	C90.334206,150.472748 88.804665,148.730453 88.940292,144.552765 
	C89.056107,140.985260 90.524757,139.856689 93.837189,140.025314 
	C97.002029,140.186462 100.482300,139.547531 100.851036,144.256378 
	C101.165085,148.267014 99.413544,150.239761 94.884262,149.940979 
z"/>
<path fill="#FD8921" opacity="1.000000" stroke="none" 
	d="
M138.185532,149.936584 
	C134.127701,150.076401 133.602295,147.638275 134.072281,144.990997 
	C134.370697,143.310135 135.368774,140.558502 136.346176,140.424484 
	C138.943726,140.068314 142.483109,140.003159 144.137680,141.496048 
	C145.389114,142.625198 144.831635,146.516418 144.018631,148.800964 
	C143.696518,149.706100 140.507156,149.590866 138.185532,149.936584 
z"/>
<path fill="#69454F" opacity="1.000000" stroke="none" 
	d="
M107.823837,146.198792 
	C115.026970,146.243362 121.810181,146.327057 128.593399,146.410751 
	C128.656631,146.955887 128.719864,147.501022 128.783096,148.046158 
	C128.103699,148.627701 127.436005,149.697922 126.743103,149.714493 
	C120.426979,149.865509 114.105530,149.888519 107.788490,149.781158 
	C107.034042,149.768341 106.296616,148.753983 105.551300,148.203857 
	C106.168839,147.548538 106.786377,146.893234 107.823837,146.198792 
z"/>
<path fill="#4C525C" opacity="1.000000" stroke="none" 
	d="
M107.511002,144.891754 
	C107.187798,143.898056 107.311264,142.183487 107.426407,142.184036 
	C114.172386,142.216782 120.917816,142.386063 127.661903,142.588806 
	C127.800583,142.592972 127.922813,143.144150 128.547882,144.568405 
	C121.461868,145.420258 114.681641,144.851471 107.511002,144.891754 
z"/>
<path fill="#F5F5F4" opacity="1.000000" stroke="none" 
	d="
M181.405426,154.688583 
	C184.527405,154.176529 186.037048,155.451385 185.219238,158.167892 
	C184.974091,158.982162 182.882172,159.240448 181.636322,159.753448 
	C181.454361,158.126022 181.272400,156.498596 181.405426,154.688583 
z"/>
<path fill="#EFDB64" opacity="1.000000" stroke="none" 
	d="
M179.789764,168.836487 
	C179.581345,168.915390 179.244476,168.712280 178.745148,168.246918 
	C178.942215,168.174576 179.301773,168.364517 179.789764,168.836487 
z"/>
</svg>